<svg id="visual" viewBox="0 0 900 450" width="900" height="450" xmlns="http://www.w3.org/2000/svg" xmlns:xlink="http://www.w3.org/1999/xlink" version="1.1"><rect x="0" y="0" width="900" height="450" fill="#fff"></rect><defs><linearGradient id="grad1_0" x1="50%" y1="0%" x2="100%" y2="100%"><stop offset="10%" stop-color="#0074b0" stop-opacity="1"></stop><stop offset="90%" stop-color="#0074b0" stop-opacity="1"></stop></linearGradient></defs><defs><linearGradient id="grad1_1" x1="50%" y1="0%" x2="100%" y2="100%"><stop offset="10%" stop-color="#0074b0" stop-opacity="1"></stop><stop offset="90%" stop-color="#ffffff" stop-opacity="1"></stop></linearGradient></defs><defs><linearGradient id="grad2_0" x1="0%" y1="0%" x2="50%" y2="100%"><stop offset="10%" stop-color="#0074b0" stop-opacity="1"></stop><stop offset="90%" stop-color="#0074b0" stop-opacity="1"></stop></linearGradient></defs><defs><linearGradient id="grad2_1" x1="0%" y1="0%" x2="50%" y2="100%"><stop offset="10%" stop-color="#ffffff" stop-opacity="1"></stop><stop offset="90%" stop-color="#0074b0" stop-opacity="1"></stop></linearGradient></defs><g transform="translate(900, 0)"><path d="M0 315C-20.1 318.6 -40.2 322.1 -53.8 305.3C-67.5 288.4 -74.8 251.2 -85.8 235.9C-96.9 220.6 -111.8 227.2 -136.5 236.4C-161.2 245.6 -195.6 257.3 -202.5 241.3C-209.4 225.3 -188.7 181.7 -195.3 163.9C-202 146.1 -236 154 -255.5 147.5C-274.9 141 -279.8 120 -276.3 100.6C-272.7 81.2 -260.8 63.4 -265.9 46.9C-271 30.4 -293 15.2 -315 0L0 0Z" fill="#9ab7d7"></path><path d="M0 157.5C-10 159.3 -20.1 161.1 -26.9 152.6C-33.8 144.2 -37.4 125.6 -42.9 117.9C-48.5 110.3 -55.9 113.6 -68.2 118.2C-80.6 122.8 -97.8 128.6 -101.2 120.7C-104.7 112.7 -94.3 90.9 -97.7 82C-101 73 -118 77 -127.7 73.8C-137.5 70.5 -139.9 60 -138.1 50.3C-136.4 40.6 -130.4 31.7 -132.9 23.4C-135.5 15.2 -146.5 7.6 -157.5 0L0 0Z" fill="#0074b0"></path></g><g transform="translate(0, 450)"><path d="M0 -315C16.9 -305.5 33.8 -295.9 51.2 -290.5C68.6 -285.1 86.4 -283.9 99.9 -274.4C113.3 -264.9 122.3 -247.2 140 -242.5C157.7 -237.7 184.1 -246 199.3 -237.5C214.4 -229 218.3 -203.8 216.8 -181.9C215.3 -160 208.3 -141.3 228.6 -132C248.9 -122.7 296.5 -122.6 296 -107.7C295.5 -92.9 247.1 -63.1 242.3 -42.7C237.4 -22.3 276.2 -11.1 315 0L0 0Z" fill="#9ab7d7"></path><path d="M0 -157.5C8.5 -152.7 16.9 -148 25.6 -145.3C34.3 -142.6 43.2 -141.9 49.9 -137.2C56.6 -132.5 61.1 -123.6 70 -121.2C78.9 -118.9 92.1 -123 99.6 -118.7C107.2 -114.5 109.2 -101.9 108.4 -91C107.6 -80 104.2 -70.7 114.3 -66C124.5 -61.3 148.2 -61.3 148 -53.9C147.8 -46.4 123.5 -31.6 121.1 -21.4C118.7 -11.1 138.1 -5.6 157.5 0L0 0Z" fill="#0074b0"></path></g></svg>