<svg id="visual" viewBox="0 0 900 600" width="900" height="600" xmlns="http://www.w3.org/2000/svg" xmlns:xlink="http://www.w3.org/1999/xlink" version="1.1"><rect x="0" y="0" width="900" height="600" fill="#ffffff"></rect><defs><linearGradient id="grad1_0" x1="33.3%" y1="0%" x2="100%" y2="100%"><stop offset="20%" stop-color="#8d52f8" stop-opacity="1"></stop><stop offset="80%" stop-color="#8d52f8" stop-opacity="1"></stop></linearGradient></defs><defs><linearGradient id="grad1_1" x1="33.3%" y1="0%" x2="100%" y2="100%"><stop offset="20%" stop-color="#8d52f8" stop-opacity="1"></stop><stop offset="80%" stop-color="#b07efb" stop-opacity="1"></stop></linearGradient></defs><defs><linearGradient id="grad1_2" x1="33.3%" y1="0%" x2="100%" y2="100%"><stop offset="20%" stop-color="#cda9fd" stop-opacity="1"></stop><stop offset="80%" stop-color="#b07efb" stop-opacity="1"></stop></linearGradient></defs><defs><linearGradient id="grad1_3" x1="33.3%" y1="0%" x2="100%" y2="100%"><stop offset="20%" stop-color="#cda9fd" stop-opacity="1"></stop><stop offset="80%" stop-color="#e7d3ff" stop-opacity="1"></stop></linearGradient></defs><defs><linearGradient id="grad1_4" x1="33.3%" y1="0%" x2="100%" y2="100%"><stop offset="20%" stop-color="#ffffff" stop-opacity="1"></stop><stop offset="80%" stop-color="#e7d3ff" stop-opacity="1"></stop></linearGradient></defs><defs><linearGradient id="grad2_0" x1="0%" y1="0%" x2="66.7%" y2="100%"><stop offset="20%" stop-color="#8d52f8" stop-opacity="1"></stop><stop offset="80%" stop-color="#8d52f8" stop-opacity="1"></stop></linearGradient></defs><defs><linearGradient id="grad2_1" x1="0%" y1="0%" x2="66.7%" y2="100%"><stop offset="20%" stop-color="#b07efb" stop-opacity="1"></stop><stop offset="80%" stop-color="#8d52f8" stop-opacity="1"></stop></linearGradient></defs><defs><linearGradient id="grad2_2" x1="0%" y1="0%" x2="66.7%" y2="100%"><stop offset="20%" stop-color="#b07efb" stop-opacity="1"></stop><stop offset="80%" stop-color="#cda9fd" stop-opacity="1"></stop></linearGradient></defs><defs><linearGradient id="grad2_3" x1="0%" y1="0%" x2="66.7%" y2="100%"><stop offset="20%" stop-color="#e7d3ff" stop-opacity="1"></stop><stop offset="80%" stop-color="#cda9fd" stop-opacity="1"></stop></linearGradient></defs><defs><linearGradient id="grad2_4" x1="0%" y1="0%" x2="66.7%" y2="100%"><stop offset="20%" stop-color="#e7d3ff" stop-opacity="1"></stop><stop offset="80%" stop-color="#ffffff" stop-opacity="1"></stop></linearGradient></defs><g transform="translate(900, 0)"><path d="M0 297.5C-29.1 265.2 -58.1 233 -90.3 218C-122.5 203 -157.9 205.3 -191.6 191.6C-225.4 178 -257.4 148.4 -274.8 113.8C-292.2 79.2 -294.8 39.6 -297.5 0L0 0Z" fill="#f3e9ff"></path><path d="M0 238C-23.2 212.2 -46.5 186.4 -72.3 174.4C-98 162.4 -126.3 164.2 -153.3 153.3C-180.3 142.4 -206 118.7 -219.9 91.1C-233.7 63.4 -235.9 31.7 -238 0L0 0Z" fill="#dbbefe"></path><path d="M0 178.5C-17.4 159.1 -34.9 139.8 -54.2 130.8C-73.5 121.8 -94.7 123.2 -115 115C-135.2 106.8 -154.5 89.1 -164.9 68.3C-175.3 47.5 -176.9 23.8 -178.5 0L0 0Z" fill="#bf93fc"></path><path d="M0 119C-11.6 106.1 -23.2 93.2 -36.1 87.2C-49 81.2 -63.2 82.1 -76.7 76.7C-90.1 71.2 -103 59.4 -109.9 45.5C-116.9 31.7 -117.9 15.8 -119 0L0 0Z" fill="#9f68fa"></path><path d="M0 59.5C-5.8 53 -11.6 46.6 -18.1 43.6C-24.5 40.6 -31.6 41.1 -38.3 38.3C-45.1 35.6 -51.5 29.7 -55 22.8C-58.4 15.8 -59 7.9 -59.5 0L0 0Z" fill="#8d52f8"></path></g><g transform="translate(0, 600)"><path d="M0 -297.5C40.8 -290.6 81.6 -283.8 108.3 -261.5C135 -239.1 147.5 -201.3 176.8 -176.8C206 -152.3 251.9 -141.1 274.8 -113.8C297.7 -86.6 297.6 -43.3 297.5 0L0 0Z" fill="#f3e9ff"></path><path d="M0 -238C32.6 -232.5 65.3 -227 86.6 -209.2C108 -191.3 118 -161 141.4 -141.4C164.8 -121.8 201.5 -112.9 219.9 -91.1C238.2 -69.3 238.1 -34.6 238 0L0 0Z" fill="#dbbefe"></path><path d="M0 -178.5C24.5 -174.4 49 -170.3 65 -156.9C81 -143.5 88.5 -120.8 106.1 -106.1C123.6 -91.4 151.2 -84.6 164.9 -68.3C178.6 -52 178.5 -26 178.5 0L0 0Z" fill="#bf93fc"></path><path d="M0 -119C16.3 -116.2 32.6 -113.5 43.3 -104.6C54 -95.6 59 -80.5 70.7 -70.7C82.4 -60.9 100.8 -56.4 109.9 -45.5C119.1 -34.6 119 -17.3 119 0L0 0Z" fill="#9f68fa"></path><path d="M0 -59.5C8.2 -58.1 16.3 -56.8 21.7 -52.3C27 -47.8 29.5 -40.3 35.4 -35.4C41.2 -30.5 50.4 -28.2 55 -22.8C59.5 -17.3 59.5 -8.7 59.5 0L0 0Z" fill="#8d52f8"></path></g></svg>