<svg width="446" height="372" viewBox="0 0 446 372" fill="none" xmlns="http://www.w3.org/2000/svg">
<path opacity="0.1" d="M429.568 174.44C415.086 107.991 338.322 110.366 295.623 92.0773C236.209 62.6619 182.081 -6.70006 115.575 0.523997C-10.8868 14.2634 -11.2906 211.407 41.8315 280.252C132.993 398.395 269.761 359.539 376.259 290.776C433.892 253.562 432.751 199.531 429.568 174.44Z" fill="#367CFF"/>
<path d="M0.314775 371.243H445.685C445.769 371.243 445.849 371.138 445.908 370.951C445.967 370.763 446 370.509 446 370.243C446 369.978 445.967 369.724 445.908 369.536C445.849 369.349 445.769 369.243 445.685 369.243H0.314775C0.231291 369.243 0.151227 369.349 0.0921954 369.536C0.0331637 369.724 0 369.978 0 370.243C0 370.509 0.0331637 370.763 0.0921954 370.951C0.151227 371.138 0.231291 371.243 0.314775 371.243V371.243Z" fill="#292A2E"/>
<path d="M64.4033 318.41L370.863 318.41C378.389 318.41 384.49 311.735 384.49 303.501L384.49 58.0125C384.49 49.7786 378.389 43.1036 370.863 43.1036L64.4033 43.1036C56.8774 43.1036 50.7766 49.7786 50.7766 58.0125L50.7766 303.501C50.7766 311.735 56.8774 318.41 64.4033 318.41Z" fill="white"/>
<path d="M50.3216 303.503V58.0121C50.3265 53.9281 51.8118 50.0129 54.4515 47.1254C57.0913 44.2379 60.67 42.6138 64.4028 42.6094H370.863C374.596 42.6138 378.175 44.2383 380.815 47.1265C383.455 50.0146 384.94 53.9305 384.944 58.015V303.503C384.94 307.588 383.455 311.504 380.815 314.392C378.175 317.28 374.596 318.905 370.863 318.91H64.4028C60.6695 318.905 57.0904 317.28 54.4506 314.392C51.8107 311.504 50.3258 307.588 50.3216 303.503ZM64.4028 43.5992C60.9105 43.6035 57.5624 45.1232 55.0929 47.825C52.6235 50.5268 51.2345 54.19 51.2305 58.0109V303.503C51.2343 307.324 52.6233 310.988 55.0928 313.69C57.5622 316.392 60.9104 317.911 64.4028 317.916H370.863C374.355 317.912 377.704 316.392 380.173 313.69C382.643 310.988 384.032 307.324 384.036 303.503V58.0121C384.032 54.1909 382.643 50.5273 380.173 47.8252C377.704 45.1232 374.355 43.6033 370.863 43.5992H64.4028Z" fill="#292A2E"/>
<path d="M50.7766 58.0103V73.0124H384.487V58.0103C384.487 54.0563 383.052 50.2642 380.496 47.4683C377.941 44.6723 374.475 43.1015 370.861 43.1013H64.4033C60.7893 43.1013 57.3232 44.6721 54.7677 47.4681C52.2122 50.264 50.7766 54.0562 50.7766 58.0103Z" fill="#292A2E"/>
<path d="M194.063 123.095C190.333 120.844 189.086 116.848 189.196 114.085C189.325 110.834 190.794 108.112 190.339 104.643C189.903 101.558 188.062 98.2452 185.193 95.382C183.906 94.0665 182.413 92.8895 180.797 91.9172C180.035 91.4764 179.253 91.0815 178.461 90.7371C175.045 89.2372 171.576 88.7179 168.447 88.7375C164.747 88.7602 161.409 89.5414 158.466 90.7156C155.104 92.081 152.19 93.9488 149.805 96.2669C147.252 98.708 145.3 101.618 144.006 104.912C142.651 108.334 142.131 112.189 142.468 116.315C142.857 120.701 144.278 125.334 146.655 129.961C147.974 132.521 149.554 135.061 151.37 137.544C153.568 140.492 156.218 143.287 159.209 145.813C165.693 151.382 167.251 146.598 174.961 149.836C176.861 150.635 171.716 146.283 173.628 146.905C174.234 147.102 168.312 144.481 171.852 146.665C164.026 144.109 168.813 148.376 161.8 143.281C158.501 140.91 157.91 143.911 155.204 141.048C152.931 138.557 150.969 135.932 149.374 133.246C146.54 128.625 144.642 123.915 143.788 119.381C143.038 115.213 143.163 111.264 144.157 107.713C145.113 104.278 146.757 101.202 149.036 98.5841C151.174 96.0913 153.85 94.0211 156.992 92.4295C159.774 90.9789 163.015 90.0442 166.595 89.66C169.59 89.3775 172.944 89.5723 176.346 90.678C177.867 91.1522 179.384 91.843 180.823 92.7169C184.246 94.8256 187.028 98.0872 188.438 101.163C189.157 102.757 189.512 104.332 189.482 105.789C189.465 107.425 189.088 108.917 188.759 110.422C188.441 111.883 188.13 113.375 188.29 115.019C188.402 116.563 188.952 118.213 189.897 119.84C190.769 121.334 191.797 122.291 193.449 123.307C194.023 123.654 201.109 127.17 200.534 126.823L194.063 123.095Z" fill="#367CFF"/>
<path d="M335.405 225.682C335.527 225.664 336.881 250.246 362.981 248.103C381.051 246.622 387.493 225.647 387.908 225.647C385.959 225.194 382.679 224.535 381.813 224.03C378.968 222.357 375.447 220.617 374.53 214.572C374.002 211.087 374.899 193.263 374.623 189.737L346.886 196.512C347.274 203.958 349.986 221.219 340.479 224.273C338.897 224.776 337.193 225.241 335.405 225.682Z" fill="#E98862"/>
<path opacity="0.52" d="M346.497 217.217C346.932 215.685 347.212 214.106 347.332 212.507C347.637 208.86 347.576 205.186 347.15 201.553C352.788 200.721 358.099 198.175 362.48 194.205C362.995 196.286 365.828 205.379 365.043 207.356C363.561 211.095 356.595 217.217 346.497 217.217Z" fill="#0C0C0C"/>
<path d="M336.996 163.691C336.996 163.691 330.432 155.558 331.255 140.386C331.89 128.639 340.139 138.178 340.139 138.178C340.139 138.178 340.671 129.726 345.999 131.763C351.327 133.8 352.788 143.13 352.788 143.13" fill="#0C0C0C"/>
<path d="M374.15 139.038C374.15 139.038 400.752 148.286 383.418 186.415L380.979 186.055L376.03 185.326" fill="#0C0C0C"/>
<path d="M350.413 209.311C361.332 210.651 375.545 206.094 378.693 190.211L381.534 175.88C384.682 159.997 379.609 145.313 365.942 142.068C352.273 138.825 339.504 149.277 336.354 165.16L335.097 171.506C334.699 173.693 334.439 175.906 334.317 178.132C333.955 184.012 333.425 192.954 335.88 199.631C338.202 205.932 343.438 208.458 350.413 209.311Z" fill="#E98862"/>
<path d="M340.19 172.483C341.144 172.483 341.918 171.636 341.918 170.592C341.918 169.548 341.144 168.701 340.19 168.701C339.235 168.701 338.461 169.548 338.461 170.592C338.461 171.636 339.235 172.483 340.19 172.483Z" fill="#0C0C0C"/>
<path d="M356.666 175.379C357.62 175.379 358.394 174.532 358.394 173.488C358.394 172.444 357.62 171.597 356.666 171.597C355.711 171.597 354.937 172.444 354.937 173.488C354.937 174.532 355.711 175.379 356.666 175.379Z" fill="#0C0C0C"/>
<path opacity="0.5" d="M349.879 194.615C347.619 194.409 345.435 193.625 343.502 192.327C343.461 192.302 343.424 192.268 343.394 192.228C343.364 192.187 343.343 192.14 343.33 192.09C343.317 192.04 343.314 191.988 343.32 191.936C343.326 191.884 343.342 191.835 343.366 191.79C343.39 191.745 343.422 191.706 343.46 191.675C343.498 191.644 343.542 191.622 343.588 191.609C343.634 191.597 343.682 191.595 343.729 191.604C343.776 191.612 343.821 191.631 343.861 191.659C348.038 194.344 352.086 194.608 355.568 192.421C355.639 192.375 355.711 192.333 355.786 192.294C355.872 192.259 355.967 192.262 356.051 192.302C356.135 192.342 356.202 192.417 356.237 192.509C356.272 192.602 356.273 192.706 356.239 192.8C356.206 192.893 356.14 192.969 356.057 193.011C356.03 193.025 355.984 193.054 355.921 193.094C354.09 194.247 351.987 194.777 349.879 194.615Z" fill="#0C0C0C"/>
<path opacity="0.52" d="M349.556 198.273C349.146 198.242 348.74 198.174 348.341 198.069C348.25 198.045 348.171 197.982 348.122 197.895C348.073 197.807 348.057 197.702 348.079 197.602C348.101 197.502 348.158 197.416 348.238 197.362C348.318 197.308 348.414 197.292 348.506 197.315C350.905 197.941 352.209 196.885 352.264 196.84C352.338 196.777 352.432 196.749 352.525 196.762C352.618 196.775 352.703 196.828 352.76 196.909C352.818 196.991 352.843 197.094 352.832 197.195C352.82 197.297 352.771 197.39 352.697 197.453C351.768 198.114 350.658 198.404 349.556 198.273Z" fill="#0C0C0C"/>
<path d="M376.885 194.849C381.039 195.834 385.37 191.772 386.271 187.227C387.172 182.682 384.302 179.377 380.147 178.391L377.403 180.928L373.314 194.001L376.885 194.849Z" fill="#E98862"/>
<path d="M374.104 186.604C374.104 186.604 376.891 163.758 370.904 160.975C366.918 159.122 355.632 163.33 346.651 159.3C342.723 157.537 338.636 157.779 337.849 159.803C337.537 160.605 337.227 148.019 345.325 140.323C351.772 134.196 368.83 135.861 375.974 139.931C395.755 151.205 380.821 179.575 380.821 179.575L378.439 187.135L374.104 186.604Z" fill="#0C0C0C"/>
<g opacity="0.52">
<path d="M346.297 188.115C346.288 188.115 346.279 188.115 346.271 188.11C344.931 187.796 342.716 187.107 342.93 186.01C343.109 185.102 347.299 175.83 347.777 174.773C347.797 174.726 347.824 174.684 347.859 174.65C347.893 174.615 347.934 174.588 347.978 174.571C348.022 174.554 348.069 174.546 348.116 174.549C348.162 174.552 348.208 174.566 348.25 174.589C348.292 174.611 348.329 174.643 348.36 174.682C348.39 174.721 348.414 174.766 348.428 174.815C348.442 174.864 348.447 174.915 348.443 174.966C348.438 175.017 348.425 175.067 348.403 175.112C346.543 179.218 343.734 185.55 343.613 186.167C343.695 186.458 345.031 187.036 346.417 187.361C346.504 187.382 346.58 187.44 346.63 187.521C346.679 187.603 346.699 187.702 346.683 187.798C346.668 187.894 346.62 187.981 346.548 188.039C346.476 188.098 346.387 188.124 346.298 188.112L346.297 188.115Z" fill="#0C0C0C"/>
</g>
<path d="M346.078 164.888C344.763 164.155 343.293 163.824 341.82 163.928C341.097 163.975 340.384 164.14 339.705 164.417C339.034 164.689 338.397 165.053 337.809 165.499C337.712 165.568 337.644 165.675 337.619 165.798C337.593 165.921 337.612 166.05 337.672 166.157C337.732 166.265 337.828 166.342 337.94 166.374C338.051 166.405 338.169 166.388 338.269 166.326L338.3 166.307C338.839 165.945 339.418 165.658 340.023 165.453C340.619 165.247 341.24 165.142 341.865 165.141C343.1 165.127 344.316 165.47 345.391 166.136L345.432 166.162C345.583 166.26 345.765 166.289 345.936 166.241C346.107 166.193 346.254 166.072 346.344 165.906C346.434 165.74 346.46 165.541 346.416 165.354C346.372 165.167 346.262 165.007 346.11 164.908L346.078 164.888Z" fill="#0C0C0C"/>
<path d="M355.914 167.846C357.112 167.515 358.368 167.537 359.556 167.909C360.158 168.091 360.731 168.373 361.256 168.744C361.79 169.116 362.278 169.56 362.71 170.066L362.734 170.093C362.816 170.18 362.925 170.23 363.04 170.232C363.154 170.233 363.265 170.186 363.349 170.101C363.432 170.015 363.482 169.897 363.488 169.772C363.494 169.647 363.455 169.524 363.38 169.429C362.921 168.829 362.394 168.294 361.813 167.837C361.226 167.372 360.578 167.007 359.892 166.752C358.497 166.226 356.999 166.119 355.554 166.445C355.384 166.489 355.237 166.603 355.144 166.764C355.051 166.925 355.019 167.12 355.056 167.307C355.092 167.493 355.194 167.656 355.339 167.761C355.485 167.867 355.662 167.905 355.833 167.869L355.866 167.86L355.914 167.846Z" fill="#0C0C0C"/>
<path d="M359.752 143.644C361.623 138.891 360.748 133.91 357.797 132.519C354.845 131.128 350.935 133.853 349.063 138.606C347.192 143.359 348.067 148.34 351.019 149.731C353.97 151.122 357.88 148.397 359.752 143.644Z" fill="#0C0C0C"/>
<path d="M363.5 241.974C381.642 241.038 382.405 224.19 382.405 224.19C382.405 224.19 391.394 224.826 397.37 225.711C407.153 227.159 413.607 230.789 418.743 236.408C423.521 241.635 426.429 247.291 423.352 283.399C421.123 309.541 422.692 367.053 422.692 367.053H313.201C313.201 367.053 306.636 291.675 305.72 279.906C303.974 257.438 302.556 237.866 306.819 233.201C315.584 223.612 332.788 224.19 340.322 224.192C340.445 224.192 338.794 243.248 363.5 241.974Z" fill="#367CFF"/>
<path d="M333.504 323.158L317.577 313.462C317.227 313.249 316.841 313.118 316.442 313.077C316.043 313.037 315.641 313.087 315.261 313.226C314.881 313.365 314.532 313.589 314.235 313.884C313.939 314.178 313.702 314.537 313.539 314.938C313.26 315.687 313.244 316.523 313.496 317.284C313.748 318.045 314.25 318.676 314.903 319.056L318.319 321.134L304.836 319.99C303.339 319.834 301.411 320.689 301.362 322.539C301.301 323.249 301.461 323.961 301.817 324.559C302.173 325.156 302.703 325.604 303.322 325.829C303.317 325.844 303.314 325.86 303.312 325.876C303.312 325.888 303.314 325.9 303.316 325.912L301.007 325.672C300.58 325.628 300.149 325.688 299.745 325.85C299.342 326.011 298.977 326.269 298.676 326.604C298.375 326.939 298.146 327.344 298.007 327.788C297.867 328.232 297.819 328.705 297.867 329.172C297.957 329.906 298.274 330.584 298.766 331.093C299.257 331.601 299.894 331.91 300.569 331.967L301.551 332.069C301.561 332.101 301.577 332.132 301.597 332.158C300.918 332.257 300.294 332.617 299.836 333.173C299.378 333.73 299.115 334.446 299.096 335.195C299.096 336.015 299.379 336.804 299.889 337.405C300.398 338.007 301.096 338.376 301.843 338.439L304.283 338.692C304.246 338.715 304.214 338.748 304.191 338.787C304.168 338.825 304.154 338.87 304.149 338.916C304.147 338.971 304.159 339.026 304.184 339.073C303.602 339.345 303.119 339.819 302.807 340.421C302.495 341.024 302.373 341.721 302.459 342.407C302.563 343.125 302.886 343.784 303.374 344.277C303.863 344.769 304.489 345.067 305.152 345.122L325.739 347.264C328.619 347.564 331.515 346.915 334.055 345.403C336.596 343.89 338.666 341.581 340 338.773C341.151 336.351 341.393 333.534 340.675 330.92C339.957 328.306 338.336 326.102 336.156 324.775L333.504 323.158Z" fill="#E98862"/>
<g opacity="0.2">
<path d="M316.662 327.034C316.655 327.11 316.621 327.18 316.568 327.229C316.514 327.277 316.445 327.301 316.376 327.295L303.556 326.189C303.521 326.186 303.487 326.176 303.455 326.158C303.424 326.141 303.396 326.117 303.374 326.088C303.351 326.058 303.333 326.025 303.323 325.988C303.312 325.952 303.308 325.913 303.31 325.875C303.313 325.837 303.323 325.8 303.339 325.765C303.355 325.731 303.377 325.701 303.403 325.676C303.43 325.651 303.461 325.632 303.494 325.62C303.527 325.608 303.563 325.604 303.598 325.607L316.418 326.713C316.453 326.716 316.487 326.727 316.518 326.744C316.549 326.761 316.577 326.785 316.6 326.814C316.622 326.843 316.639 326.877 316.65 326.914C316.661 326.95 316.665 326.988 316.662 327.026L316.662 327.034Z" fill="#0C0C0C"/>
<path d="M316.372 333.235C316.365 333.31 316.331 333.38 316.277 333.428C316.224 333.477 316.155 333.501 316.086 333.495L301.778 332.261C301.743 332.258 301.709 332.247 301.678 332.23C301.647 332.212 301.619 332.188 301.597 332.159C301.574 332.13 301.557 332.096 301.546 332.06C301.535 332.024 301.531 331.985 301.534 331.947C301.542 331.871 301.575 331.801 301.629 331.752C301.682 331.702 301.75 331.676 301.82 331.68L316.128 332.914C316.163 332.917 316.197 332.928 316.228 332.945C316.259 332.963 316.287 332.987 316.31 333.016C316.332 333.045 316.35 333.078 316.36 333.115C316.371 333.151 316.375 333.189 316.372 333.228L316.372 333.235Z" fill="#0C0C0C"/>
<path d="M316.093 339.951C316.086 340.027 316.052 340.097 315.999 340.145C315.945 340.194 315.877 340.218 315.807 340.212L304.394 339.227C304.324 339.221 304.258 339.185 304.212 339.126C304.166 339.067 304.144 338.99 304.149 338.913C304.155 338.836 304.188 338.764 304.242 338.714C304.296 338.664 304.366 338.639 304.436 338.645L315.849 339.63C315.884 339.633 315.918 339.643 315.949 339.661C315.98 339.678 316.008 339.702 316.031 339.731C316.053 339.76 316.071 339.794 316.081 339.83C316.092 339.867 316.096 339.905 316.094 339.943L316.093 339.951Z" fill="#0C0C0C"/>
</g>
<path d="M324.459 354.421L423.885 366.633C426.95 366.998 430.051 366.581 432.944 365.415C435.837 364.248 438.444 362.364 440.56 359.911C442.676 357.457 444.243 354.5 445.139 351.272C446.035 348.044 446.235 344.633 445.724 341.307L424.522 248.384C424.087 245.556 423.147 242.85 421.757 240.42C420.366 237.99 418.551 235.883 416.417 234.22C412.105 230.862 406.751 229.515 401.532 230.475C396.313 231.436 391.656 234.626 388.586 239.343C385.516 244.06 384.285 249.918 385.163 255.628L401.424 323.303L329.177 315.415L324.459 354.421Z" fill="#367CFF"/>
<path d="M414.384 325.334C414.454 325.34 414.524 325.315 414.578 325.264C414.631 325.213 414.664 325.142 414.67 325.064C414.675 324.987 414.652 324.911 414.605 324.852C414.559 324.794 414.494 324.757 414.423 324.752L402.03 322.722C401.996 322.715 401.96 322.717 401.926 322.726C401.892 322.735 401.86 322.751 401.832 322.774C401.804 322.797 401.78 322.825 401.762 322.858C401.744 322.891 401.732 322.928 401.728 322.966C401.717 323.042 401.735 323.12 401.777 323.182C401.819 323.244 401.881 323.285 401.951 323.297L414.344 325.328C414.357 325.331 414.37 325.333 414.384 325.334Z" fill="#0C0C0C"/>
<path d="M421.118 367.052C421.188 367.057 421.258 367.031 421.311 366.98C421.364 366.929 421.396 366.857 421.401 366.78C421.405 366.703 421.381 366.627 421.335 366.569C421.288 366.511 421.222 366.475 421.152 366.47L325.017 354.2L329.677 315.774L401.424 323.301C401.465 323.306 401.507 323.301 401.546 323.287C401.585 323.272 401.621 323.247 401.65 323.215C401.679 323.182 401.701 323.142 401.713 323.098C401.725 323.055 401.728 323.009 401.721 322.964L393.957 283.407C393.952 283.369 393.94 283.332 393.921 283.3C393.903 283.267 393.879 283.239 393.85 283.216C393.822 283.194 393.789 283.178 393.755 283.17C393.721 283.162 393.685 283.161 393.651 283.168C393.581 283.181 393.519 283.223 393.478 283.286C393.437 283.349 393.421 283.427 393.432 283.503L401.136 322.671L329.475 315.157C329.439 315.151 329.404 315.154 329.369 315.164C329.335 315.175 329.303 315.192 329.275 315.216C329.247 315.24 329.224 315.27 329.207 315.304C329.189 315.338 329.179 315.376 329.175 315.415L324.457 354.423C324.45 354.499 324.47 354.575 324.513 354.635C324.556 354.695 324.618 354.734 324.687 354.744L421.08 367.052C421.093 367.053 421.105 367.053 421.118 367.052Z" fill="#0C0C0C"/>
<path d="M305.435 276.502C305.37 276.502 305.306 276.476 305.257 276.429C305.208 276.382 305.177 276.316 305.169 276.245L303.576 261.389C303.572 261.351 303.575 261.313 303.584 261.276C303.594 261.239 303.61 261.205 303.632 261.175C303.653 261.145 303.68 261.12 303.711 261.101C303.741 261.082 303.775 261.07 303.809 261.066C303.879 261.058 303.949 261.08 304.005 261.128C304.06 261.176 304.096 261.245 304.105 261.321L305.697 276.176C305.702 276.214 305.699 276.253 305.689 276.29C305.68 276.327 305.664 276.361 305.642 276.391C305.62 276.421 305.593 276.446 305.563 276.465C305.532 276.484 305.499 276.496 305.464 276.5C305.454 276.501 305.445 276.502 305.435 276.502Z" fill="#0C0C0C"/>
<path d="M216.748 166.392C216.623 165.986 216.425 165.611 216.164 165.292C215.903 164.972 215.585 164.714 215.23 164.533C214.875 164.352 214.49 164.252 214.098 164.239C213.707 164.226 213.317 164.301 212.952 164.458C212.257 164.79 211.702 165.398 211.401 166.16C211.1 166.921 211.074 167.78 211.329 168.562L212.563 172.603L203.317 161.806C202.306 160.584 200.357 159.795 199.181 161.123C198.698 161.602 198.378 162.246 198.273 162.949C198.168 163.652 198.284 164.374 198.601 164.996C198.588 165.004 198.575 165.014 198.563 165.025C198.556 165.034 198.549 165.044 198.543 165.054L198.493 164.991C198.206 164.645 197.853 164.372 197.458 164.193C197.063 164.014 196.638 163.933 196.211 163.956C195.784 163.979 195.368 164.106 194.991 164.326C194.614 164.547 194.287 164.856 194.033 165.231C193.639 165.839 193.449 166.578 193.496 167.321C193.542 168.064 193.822 168.767 194.288 169.311L194.797 169.945C194.784 169.977 194.776 170.012 194.775 170.047C194.227 169.65 193.566 169.485 192.915 169.583C192.264 169.681 191.668 170.035 191.238 170.579C190.722 171.188 190.437 171.989 190.441 172.819C190.444 173.649 190.735 174.447 191.256 175.051C191.175 175.033 191.209 175.201 191.142 175.268C191.106 175.306 191.081 175.356 191.07 175.41C190.489 175.187 189.859 175.174 189.27 175.372C188.682 175.57 188.167 175.968 187.8 176.509C187.406 177.117 187.217 177.855 187.263 178.599C187.309 179.342 187.589 180.045 188.055 180.589L201.929 197.367C203.87 199.714 206.407 201.373 209.216 202.133C212.024 202.892 214.976 202.716 217.693 201.627L226.44 198.123L216.748 166.392Z" fill="#E98862"/>
<path opacity="0.2" d="M192.129 185.669C192.642 186.268 193.338 186.64 194.085 186.717C194.181 186.727 194.279 186.732 194.377 186.732C194.852 186.739 195.322 186.624 195.749 186.395C196.175 186.167 196.547 185.832 196.834 185.417C197.121 185.003 197.315 184.521 197.4 184.009C197.485 183.498 197.46 182.971 197.325 182.473C197.759 182.795 198.259 182.994 198.781 183.05C198.881 183.06 198.981 183.066 199.082 183.066C199.577 183.073 200.067 182.951 200.51 182.71C200.953 182.47 201.338 182.117 201.633 181.682C201.927 181.247 202.123 180.742 202.204 180.208C202.286 179.673 202.25 179.126 202.1 178.61C202.512 178.896 202.98 179.073 203.466 179.127C203.566 179.138 203.666 179.143 203.767 179.143C204.202 179.146 204.633 179.051 205.032 178.864C205.432 178.678 205.792 178.403 206.091 178.057C206.646 177.371 206.944 176.481 206.925 175.565C206.906 174.649 206.571 173.775 205.988 173.117L199.838 165.873C199.814 165.844 199.785 165.821 199.753 165.804C199.721 165.787 199.687 165.778 199.651 165.776C199.616 165.774 199.581 165.78 199.547 165.794C199.514 165.807 199.484 165.827 199.458 165.854C199.432 165.88 199.411 165.912 199.397 165.947C199.382 165.983 199.374 166.021 199.373 166.059C199.372 166.098 199.378 166.137 199.391 166.173C199.404 166.209 199.423 166.242 199.448 166.27L205.6 173.516C206.091 174.064 206.375 174.796 206.394 175.563C206.414 176.331 206.168 177.078 205.706 177.656C205.457 177.943 205.156 178.171 204.824 178.327C204.491 178.482 204.133 178.562 203.771 178.561C203.409 178.561 203.051 178.479 202.719 178.322C202.387 178.165 202.087 177.935 201.839 177.647C201.794 177.595 201.446 177.207 201.307 177.045L195.313 169.875C195.266 169.818 195.2 169.783 195.129 169.778C195.059 169.774 194.99 169.8 194.937 169.851C194.884 169.903 194.852 169.975 194.848 170.052C194.844 170.129 194.868 170.205 194.915 170.262L200.915 177.439C201.406 177.987 201.69 178.719 201.709 179.486C201.729 180.254 201.483 181.001 201.021 181.579C200.772 181.866 200.472 182.094 200.139 182.249C199.807 182.405 199.449 182.485 199.087 182.484C198.726 182.484 198.368 182.403 198.036 182.246C197.704 182.09 197.405 181.861 197.156 181.573L191.59 175.114C191.542 175.06 191.477 175.028 191.408 175.025C191.338 175.022 191.271 175.049 191.22 175.1C191.168 175.151 191.137 175.222 191.133 175.298C191.129 175.373 191.151 175.448 191.196 175.505L196.146 181.282C196.62 181.811 196.894 182.517 196.913 183.257C196.932 183.998 196.694 184.72 196.248 185.277C196.008 185.554 195.718 185.774 195.398 185.924C195.077 186.074 194.732 186.151 194.383 186.151C194.034 186.15 193.689 186.072 193.369 185.921C193.048 185.77 192.759 185.549 192.519 185.272L192.129 185.669Z" fill="#0C0C0C"/>
<path d="M203.744 168.472C203.122 168.472 202.524 168.208 202.078 167.734C200.413 165.97 198.453 164.173 197.882 163.887C195.484 162.713 191.85 162.133 190.652 162.009C190.336 161.981 190.028 161.884 189.747 161.725C189.465 161.565 189.215 161.346 189.012 161.08C188.808 160.814 188.655 160.507 188.56 160.175C188.466 159.844 188.433 159.496 188.463 159.15C188.493 158.805 188.586 158.469 188.735 158.163C188.884 157.857 189.088 157.587 189.333 157.367C189.579 157.148 189.862 156.984 190.166 156.886C190.47 156.787 190.789 156.755 191.104 156.793C191.313 156.814 196.237 157.341 199.839 159.104C201.531 159.933 204.531 163.038 205.41 163.97C205.753 164.333 205.988 164.8 206.087 165.311C206.185 165.821 206.142 166.352 205.963 166.835C205.784 167.319 205.477 167.733 205.082 168.024C204.686 168.316 204.22 168.472 203.744 168.472Z" fill="#E98862"/>
<path d="M212.967 174.106L211.329 168.562C211.074 167.78 211.1 166.922 211.401 166.16C211.702 165.398 212.257 164.79 212.952 164.458C213.317 164.301 213.707 164.226 214.098 164.239C214.49 164.252 214.875 164.352 215.23 164.533C215.585 164.714 215.903 164.972 216.164 165.292C216.425 165.611 216.624 165.986 216.748 166.392L219.61 175.766" fill="#E98862"/>
<path d="M176.698 168.119L177.448 160.474L230.12 165.894L229.37 173.539L176.698 168.119Z" fill="#367CFF"/>
<path opacity="0.5" d="M176.698 168.119L177.448 160.474L230.12 165.894L229.37 173.539L176.698 168.119Z" fill="white"/>
<path d="M235.164 174.201L235.914 166.556L230.12 165.894L229.37 173.539L235.164 174.201Z" fill="#262626"/>
<path d="M176.698 168.119C176.698 168.119 174.956 166.775 173.399 165.566C172.165 164.608 171.047 163.734 171.008 163.683C171.886 163.151 172.793 162.677 173.722 162.265C175.478 161.405 177.447 160.474 177.447 160.474L176.698 168.119Z" fill="#367CFF"/>
<path opacity="0.9" d="M176.698 168.119C176.698 168.119 174.956 166.775 173.399 165.566C172.165 164.608 171.047 163.734 171.008 163.683C171.886 163.151 172.793 162.677 173.722 162.265C175.478 161.405 177.447 160.474 177.447 160.474L176.698 168.119Z" fill="white"/>
<path d="M173.4 165.566C172.166 164.608 171.049 163.734 171.01 163.683C171.888 163.151 172.794 162.677 173.724 162.264L173.4 165.566Z" fill="#262626"/>
<path d="M176.947 165.74L229.607 171.022L229.574 171.37L176.914 166.089L176.947 165.74Z" fill="white"/>
<path d="M177.239 162.749L229.899 168.03L229.866 168.38L177.206 163.098L177.239 162.749Z" fill="white"/>
<path d="M250.213 292.598C246.617 292.597 243.087 291.533 239.997 289.518C236.908 287.503 234.374 284.612 232.662 281.15L192.964 198.118L225.939 178.506L260.142 244.954L318.711 226.3L328.086 269.281L255.696 291.754C253.913 292.313 252.068 292.597 250.213 292.598Z" fill="#367CFF"/>
<path d="M115.506 88.1262H71.2861C67.9715 88.1262 65.2845 91.0661 65.2845 94.6925V293.108C65.2845 296.735 67.9715 299.675 71.2861 299.675H115.506C118.82 299.675 121.507 296.735 121.507 293.108V94.6925C121.507 91.0661 118.82 88.1262 115.506 88.1262Z" fill="#292A2E"/>
<path d="M80.714 358.523C80.8034 358.523 80.891 358.496 80.967 358.445C81.043 358.393 81.1043 358.319 81.144 358.232L93.748 329.949C93.7934 329.826 93.7945 329.688 93.7511 329.565C93.7076 329.441 93.6228 329.339 93.5138 329.281C93.4048 329.223 93.2797 329.212 93.1638 329.251C93.0478 329.29 92.9497 329.376 92.8891 329.49L80.2851 357.774C80.25 357.853 80.2339 357.941 80.2383 358.03C80.2426 358.118 80.2674 358.204 80.3102 358.279C80.353 358.354 80.4125 358.416 80.4831 358.459C80.5537 358.502 80.6332 358.525 80.714 358.525V358.523Z" fill="#292A2E"/>
<path d="M59.4089 356.883C59.5145 356.883 59.6171 356.844 59.7007 356.774C59.7843 356.703 59.8443 356.604 59.8713 356.493L74.4564 295.572C74.4789 295.442 74.4553 295.307 74.3905 295.195C74.3257 295.083 74.2244 295.002 74.1072 294.969C73.9899 294.935 73.8653 294.951 73.7586 295.014C73.6519 295.077 73.5709 295.182 73.5321 295.308L58.9464 356.228C58.9282 356.305 58.9263 356.386 58.941 356.464C58.9557 356.542 58.9865 356.616 59.0311 356.679C59.0757 356.742 59.133 356.794 59.1984 356.829C59.2639 356.864 59.3359 356.883 59.4089 356.883Z" fill="#292A2E"/>
<path d="M31.5881 359.579C31.6522 359.579 31.7156 359.565 31.7744 359.537C31.8908 359.483 31.9828 359.38 32.0303 359.252C32.0778 359.123 32.0768 358.98 32.0277 358.852L16.9514 320.005C16.8962 319.887 16.8023 319.797 16.6886 319.752C16.575 319.707 16.4499 319.71 16.3386 319.762C16.2272 319.813 16.1378 319.909 16.0883 320.03C16.0389 320.15 16.0329 320.287 16.0717 320.412L31.1481 359.26C31.1848 359.355 31.2461 359.435 31.3243 359.492C31.4025 359.549 31.4943 359.579 31.5881 359.579Z" fill="#292A2E"/>
<path d="M58.8682 368.58C58.9075 368.581 58.9466 368.575 58.9847 368.565C59.1075 368.531 59.213 368.445 59.2781 368.326C59.3432 368.207 59.3627 368.065 59.3322 367.931L41.8138 291.252C41.7771 291.125 41.6974 291.017 41.5909 290.952C41.4844 290.887 41.3592 290.869 41.2409 290.901C41.1225 290.934 41.0199 291.014 40.954 291.126C40.8881 291.239 40.8639 291.374 40.8863 291.506L58.4052 368.184C58.4312 368.297 58.4908 368.398 58.5747 368.469C58.6585 368.541 58.7618 368.58 58.8682 368.58Z" fill="#292A2E"/>
<path d="M52.6546 306.964C57.4077 296.032 54.3061 283.55 45.7271 279.085C37.148 274.62 26.3401 279.862 21.587 290.795C16.8339 301.727 19.9354 314.209 28.5145 318.674C37.0935 323.139 47.9014 317.896 52.6546 306.964Z" fill="#0CBC8B"/>
<path opacity="0.4" d="M52.6546 306.964C57.4077 296.032 54.3061 283.55 45.7271 279.085C37.148 274.62 26.3401 279.862 21.587 290.795C16.8339 301.727 19.9354 314.209 28.5145 318.674C37.0935 323.139 47.9014 317.896 52.6546 306.964Z" fill="white"/>
<path d="M23.1695 332.204C25.6487 325.469 23.4767 318.167 18.3182 315.894C13.1598 313.62 6.9682 317.238 4.48899 323.973C2.00979 330.707 4.18178 338.01 9.34026 340.283C14.4987 342.556 20.6903 338.939 23.1695 332.204Z" fill="#0CBC8B"/>
<path d="M83.9562 323.562C91.6187 321.019 95.5181 310.616 92.6657 300.327C89.8133 290.038 81.2892 283.758 73.6267 286.301C65.9642 288.844 62.0648 299.246 64.9172 309.536C67.7696 319.825 76.2936 326.104 83.9562 323.562Z" fill="#0CBC8B"/>
<path d="M97.1345 345.458C101.412 344.675 104.062 338.699 103.054 332.113C102.045 325.526 97.7604 320.821 93.483 321.605C89.2055 322.389 86.5553 328.364 87.5637 334.951C88.572 341.538 92.857 346.242 97.1345 345.458Z" fill="#0CBC8B"/>
<path d="M17.5266 369.299H91.9429V349.01H17.5266V369.299Z" fill="#292A2E"/>
<path opacity="0.3" d="M17.5266 369.299H91.9429V349.01H17.5266V369.299Z" fill="white"/>
<path d="M52.7968 343.911C55.8212 335.695 53.148 326.776 46.826 323.99C40.504 321.204 32.9272 325.606 29.9027 333.823C26.8783 342.039 29.5515 350.958 35.8735 353.743C42.1955 356.529 49.7723 352.127 52.7968 343.911Z" fill="#0CBC8B"/>
<path d="M69.3138 351.707C75.6103 351.707 80.7146 346.123 80.7146 339.234C80.7146 332.345 75.6103 326.76 69.3138 326.76C63.0173 326.76 57.913 332.345 57.913 339.234C57.913 346.123 63.0173 351.707 69.3138 351.707Z" fill="#0CBC8B"/>
<path opacity="0.68" d="M23.1695 332.204C25.6487 325.469 23.4767 318.167 18.3182 315.894C13.1598 313.62 6.9682 317.238 4.48899 323.973C2.00979 330.707 4.18178 338.01 9.34026 340.283C14.4987 342.556 20.6903 338.939 23.1695 332.204Z" fill="white"/>
<path opacity="0.68" d="M83.9562 323.562C91.6187 321.019 95.5181 310.616 92.6657 300.327C89.8133 290.038 81.2892 283.758 73.6267 286.301C65.9642 288.844 62.0648 299.246 64.9172 309.536C67.7696 319.825 76.2936 326.104 83.9562 323.562Z" fill="white"/>
<path opacity="0.68" d="M97.1345 345.458C101.412 344.675 104.062 338.699 103.054 332.113C102.045 325.526 97.7604 320.821 93.483 321.605C89.2055 322.389 86.5553 328.364 87.5637 334.951C88.572 341.538 92.857 346.242 97.1345 345.458Z" fill="white"/>
<path opacity="0.68" d="M52.7968 343.911C55.8212 335.695 53.148 326.776 46.826 323.99C40.504 321.204 32.9272 325.606 29.9027 333.823C26.8783 342.039 29.5515 350.958 35.8735 353.743C42.1955 356.529 49.7723 352.127 52.7968 343.911Z" fill="white"/>
<path opacity="0.4" d="M69.3138 351.707C75.6103 351.707 80.7146 346.123 80.7146 339.234C80.7146 332.345 75.6103 326.76 69.3138 326.76C63.0173 326.76 57.913 332.345 57.913 339.234C57.913 346.123 63.0173 351.707 69.3138 351.707Z" fill="white"/>
<path d="M32.6945 328.733C41.3477 331.378 45.9019 323.641 45.9019 323.641L45.8971 323.63C41.2812 322.125 36.1635 324.242 32.6945 328.733Z" fill="#292A2E"/>
<path d="M87.3531 331.901C91.6132 330.116 95.1432 326.712 97.2969 322.313C96.1296 321.631 94.7913 321.383 93.484 321.607C89.8809 322.266 87.4346 326.61 87.3531 331.901Z" fill="#292A2E"/>
<path d="M67.2799 326.961C70.5984 330.232 74.7449 332.326 79.1729 332.967C77.9937 330.752 76.2198 328.987 74.0922 327.912C71.9645 326.837 69.5861 326.505 67.2799 326.961Z" fill="#292A2E"/>
<path d="M85.2737 134.585H75.7471C74.4317 134.585 73.3652 135.752 73.3652 137.191V147.614C73.3652 149.054 74.4317 150.22 75.7471 150.22H85.2737C86.5892 150.22 87.6556 149.054 87.6556 147.614V137.191C87.6556 135.752 86.5892 134.585 85.2737 134.585Z" fill="#292A2E"/>
<path d="M85.2737 150.511H75.7482C75.0462 150.511 74.3732 150.205 73.8768 149.662C73.3803 149.119 73.1011 148.383 73.1002 147.615V137.193C73.1009 136.425 73.3801 135.688 73.8766 135.145C74.373 134.602 75.0461 134.297 75.7482 134.296H85.2737C85.9757 134.297 86.6489 134.602 87.1453 135.145C87.6417 135.688 87.9209 136.425 87.9216 137.193V147.615C87.9208 148.383 87.6415 149.119 87.1451 149.662C86.6487 150.205 85.9756 150.511 85.2737 150.511ZM75.7482 134.876C75.1872 134.877 74.6494 135.121 74.2527 135.555C73.856 135.989 73.6329 136.578 73.6324 137.191V147.613C73.6329 148.227 73.8561 148.815 74.2527 149.249C74.6494 149.683 75.1873 149.927 75.7482 149.927H85.2737C85.8346 149.927 86.3724 149.683 86.7691 149.249C87.1658 148.815 87.3889 148.227 87.3895 147.613V137.191C87.3889 136.578 87.1658 135.989 86.7692 135.555C86.3725 135.121 85.8347 134.877 85.2737 134.876H75.7482Z" fill="white"/>
<path d="M111.337 142.119C111.337 137.801 108.138 134.301 104.192 134.301C100.246 134.301 97.047 137.801 97.047 142.119C97.047 146.436 100.246 149.936 104.192 149.936C108.138 149.936 111.337 146.436 111.337 142.119Z" fill="#292A2E"/>
<path d="M104.192 150.227C102.726 150.227 101.293 149.752 100.075 148.861C98.856 147.97 97.906 146.703 97.3451 145.222C96.7842 143.74 96.6374 142.11 96.9234 140.537C97.2093 138.964 97.9152 137.519 98.9517 136.385C99.9881 135.251 101.309 134.479 102.746 134.166C104.184 133.853 105.674 134.014 107.028 134.627C108.383 135.241 109.54 136.28 110.354 137.614C111.169 138.947 111.603 140.515 111.603 142.119C111.601 144.268 110.82 146.329 109.43 147.85C108.041 149.37 106.157 150.225 104.192 150.227ZM104.192 134.592C102.832 134.592 101.502 135.034 100.37 135.861C99.2391 136.688 98.3574 137.863 97.8367 139.238C97.3161 140.614 97.1798 142.127 97.4453 143.587C97.7107 145.047 98.3659 146.388 99.3279 147.441C100.29 148.493 101.516 149.21 102.85 149.5C104.185 149.791 105.568 149.642 106.825 149.072C108.082 148.502 109.156 147.538 109.912 146.3C110.668 145.062 111.071 143.607 111.071 142.119C111.069 140.123 110.344 138.21 109.054 136.799C107.764 135.388 106.016 134.595 104.192 134.592Z" fill="white"/>
<path d="M75.1687 98.6995L74.9548 119.693L80.8137 113.805L88.3538 113.953L75.1687 98.6995Z" fill="#292A2E"/>
<path d="M74.9547 119.987C74.918 119.986 74.8817 119.978 74.8483 119.961C74.8006 119.938 74.76 119.901 74.7316 119.853C74.7032 119.805 74.6883 119.749 74.6887 119.692L74.9015 98.6994C74.902 98.6414 74.9184 98.5849 74.9485 98.5371C74.9785 98.4894 75.021 98.4525 75.0703 98.4313C75.1197 98.4101 75.1737 98.4055 75.2254 98.4181C75.2772 98.4307 75.3243 98.4599 75.3608 98.5021L88.5458 113.756C88.5819 113.798 88.6059 113.85 88.6149 113.907C88.6239 113.963 88.6174 114.021 88.5964 114.074C88.5771 114.128 88.5426 114.174 88.498 114.205C88.4534 114.236 88.4008 114.252 88.3479 114.248L80.9143 114.103L75.1336 119.912C75.0845 119.96 75.0208 119.987 74.9547 119.987ZM75.4273 99.4255L75.2272 119.026L80.6338 113.594C80.6849 113.545 80.7505 113.518 80.8185 113.518L87.7253 113.652L75.4273 99.4255Z" fill="white"/>
<path d="M99.0154 98.6995L98.8015 119.693L104.661 113.805L112.2 113.953L99.0154 98.6995Z" fill="white"/>
<path d="M98.8014 119.987C98.7647 119.987 98.7284 119.978 98.695 119.961C98.6472 119.938 98.6066 119.901 98.5783 119.853C98.5499 119.805 98.535 119.749 98.5353 119.692L98.7482 98.6994C98.7487 98.6414 98.7651 98.5849 98.7951 98.5371C98.8252 98.4894 98.8676 98.4525 98.917 98.4313C98.9663 98.4101 99.0204 98.4055 99.0721 98.4181C99.1239 98.4307 99.171 98.4599 99.2075 98.5021L112.393 113.756C112.429 113.798 112.453 113.85 112.462 113.907C112.471 113.963 112.464 114.021 112.443 114.074C112.424 114.128 112.39 114.174 112.345 114.206C112.301 114.237 112.248 114.252 112.195 114.248L104.761 114.103L98.9808 119.912C98.9315 119.96 98.8676 119.987 98.8014 119.987ZM99.274 99.4255L99.0744 119.026L104.481 113.594C104.532 113.546 104.597 113.519 104.665 113.518L111.572 113.652L99.274 99.4255Z" fill="#292A2E"/>
<path d="M75.4619 165.058L74.3864 180.345L77.7528 182.421L85.1161 179.229L85.4764 174.935L75.4619 165.058Z" fill="#292A2E"/>
<path d="M77.7528 182.713C77.7069 182.713 77.6618 182.699 77.6219 182.675L74.2555 180.599C74.2114 180.571 74.1752 180.531 74.1514 180.482C74.1275 180.433 74.117 180.378 74.1208 180.323L75.1968 165.036C75.2007 164.982 75.2183 164.93 75.2477 164.886C75.2772 164.842 75.3172 164.808 75.3634 164.788C75.4095 164.768 75.4599 164.762 75.5088 164.772C75.5577 164.781 75.6032 164.805 75.6401 164.842L85.6546 174.719C85.6854 174.749 85.7093 174.787 85.7244 174.829C85.7394 174.871 85.7453 174.917 85.7414 174.962L85.3817 179.256C85.3771 179.309 85.3591 179.361 85.3296 179.404C85.3001 179.447 85.2603 179.48 85.2146 179.5L77.8507 182.692C77.8195 182.706 77.7863 182.712 77.7528 182.713ZM74.6663 180.182L77.774 182.099L84.8681 179.024L85.2007 175.053L75.6886 165.671L74.6663 180.182Z" fill="white"/>
<path d="M78.6772 174.239C78.6239 174.239 78.5717 174.222 78.5276 174.189C78.4835 174.156 78.4494 174.11 78.4298 174.055L75.2151 165.167C75.2006 165.131 75.1928 165.093 75.1923 165.053C75.1919 165.014 75.1986 164.975 75.2122 164.939C75.2257 164.903 75.2459 164.87 75.2713 164.842C75.2968 164.815 75.3271 164.793 75.3604 164.779C75.3937 164.764 75.4293 164.757 75.4651 164.758C75.5009 164.759 75.5362 164.768 75.5688 164.785C75.6014 164.801 75.6306 164.824 75.6548 164.853C75.679 164.882 75.6975 164.916 75.7094 164.953L78.9247 173.843C78.9406 173.887 78.9465 173.935 78.9417 173.982C78.937 174.029 78.9217 174.074 78.8973 174.114C78.8729 174.153 78.8401 174.185 78.8017 174.207C78.7634 174.229 78.7206 174.241 78.6772 174.241V174.239Z" fill="white"/>
<path d="M79.1683 177.249C80.1564 177.249 80.9574 176.372 80.9574 175.291C80.9574 174.21 80.1564 173.334 79.1683 173.334C78.1802 173.334 77.3792 174.21 77.3792 175.291C77.3792 176.372 78.1802 177.249 79.1683 177.249Z" fill="#292A2E"/>
<path d="M79.1683 177.54C78.7618 177.54 78.3644 177.408 78.0264 177.161C77.6883 176.914 77.4248 176.563 77.2692 176.152C77.1136 175.742 77.0728 175.289 77.152 174.853C77.2313 174.417 77.427 174.016 77.7144 173.702C78.0018 173.387 78.368 173.173 78.7666 173.086C79.1653 172.999 79.5786 173.044 79.9541 173.214C80.3297 173.384 80.6507 173.672 80.8765 174.042C81.1024 174.412 81.2229 174.847 81.2229 175.292C81.2224 175.888 81.0057 176.459 80.6206 176.881C80.2354 177.302 79.7131 177.539 79.1683 177.54ZM79.1683 173.626C78.867 173.626 78.5725 173.723 78.322 173.906C78.0714 174.089 77.8761 174.35 77.7608 174.654C77.6455 174.959 77.6153 175.294 77.674 175.617C77.7328 175.94 77.8778 176.237 78.0908 176.47C78.3039 176.703 78.5753 176.862 78.8708 176.926C79.1663 176.991 79.4725 176.958 79.7509 176.831C80.0292 176.705 80.267 176.492 80.4343 176.217C80.6016 175.943 80.6909 175.621 80.6908 175.292C80.6902 174.85 80.5296 174.427 80.2442 174.114C79.9588 173.802 79.5719 173.626 79.1683 173.626Z" fill="white"/>
<path d="M76.011 182.96L86.5476 178.392C86.732 178.312 86.9377 178.314 87.1209 178.397C87.3041 178.48 87.4502 178.639 87.5283 178.838L88.2941 180.793C88.3344 180.896 88.3553 181.007 88.3556 181.119C88.3559 181.231 88.3355 181.341 88.2958 181.445C88.2561 181.548 88.1978 181.641 88.1243 181.719C88.0509 181.797 87.9639 181.859 87.8684 181.899L77.2956 186.397C77.111 186.476 76.9056 186.473 76.7231 186.388C76.5406 186.304 76.3953 186.145 76.3181 185.945L75.589 184.06C75.5494 183.958 75.5288 183.848 75.5286 183.737C75.5284 183.625 75.5486 183.515 75.5879 183.413C75.6273 183.31 75.685 183.217 75.7576 183.139C75.8303 183.062 75.9164 183.001 76.011 182.96Z" fill="white"/>
<path d="M100.762 167.35L99.7476 181.768L102.923 183.727L109.869 180.715L110.208 176.666L100.762 167.35Z" fill="#292A2E"/>
<path d="M102.923 184.018C102.877 184.018 102.832 184.005 102.792 183.98L99.6172 182.022C99.5731 181.995 99.537 181.954 99.5132 181.905C99.4893 181.857 99.4787 181.801 99.4826 181.746L100.497 167.327C100.501 167.273 100.518 167.221 100.548 167.177C100.577 167.133 100.617 167.099 100.664 167.079C100.71 167.059 100.76 167.053 100.809 167.063C100.858 167.072 100.904 167.097 100.941 167.133L110.386 176.449C110.417 176.479 110.441 176.517 110.456 176.559C110.471 176.601 110.477 176.647 110.473 176.692L110.134 180.742C110.129 180.795 110.111 180.846 110.082 180.889C110.052 180.933 110.012 180.966 109.966 180.986L103.021 183.997C102.99 184.01 102.956 184.018 102.923 184.018ZM100.026 181.606L102.943 183.405L109.618 180.511L109.931 176.785L100.986 167.962L100.026 181.606Z" fill="white"/>
<path d="M103.795 176.026C103.741 176.026 103.689 176.009 103.645 175.976C103.601 175.943 103.567 175.897 103.547 175.842L100.514 167.458C100.488 167.387 100.489 167.306 100.517 167.236C100.545 167.165 100.598 167.109 100.663 167.08C100.729 167.052 100.802 167.053 100.867 167.084C100.932 167.115 100.983 167.172 101.009 167.244L104.042 175.628C104.055 175.664 104.061 175.702 104.061 175.74C104.06 175.778 104.053 175.816 104.039 175.851C104.025 175.886 104.005 175.918 103.98 175.944C103.955 175.971 103.925 175.992 103.892 176.006C103.861 176.02 103.828 176.026 103.795 176.026Z" fill="white"/>
<path d="M104.258 178.848C105.19 178.848 105.946 178.022 105.946 177.002C105.946 175.982 105.19 175.156 104.258 175.156C103.326 175.156 102.571 175.982 102.571 177.002C102.571 178.022 103.326 178.848 104.258 178.848Z" fill="#292A2E"/>
<path d="M104.258 179.14C103.872 179.14 103.494 179.015 103.173 178.78C102.852 178.545 102.601 178.212 102.453 177.821C102.305 177.43 102.267 177.001 102.342 176.586C102.417 176.171 102.604 175.791 102.877 175.492C103.15 175.193 103.498 174.989 103.877 174.907C104.256 174.824 104.649 174.867 105.006 175.028C105.363 175.19 105.668 175.464 105.882 175.816C106.097 176.167 106.212 176.58 106.212 177.003C106.211 177.57 106.005 178.113 105.639 178.514C105.273 178.914 104.776 179.14 104.258 179.14ZM104.258 175.448C103.977 175.448 103.702 175.539 103.468 175.71C103.235 175.881 103.052 176.124 102.945 176.408C102.837 176.692 102.809 177.005 102.864 177.306C102.919 177.608 103.054 177.885 103.253 178.103C103.452 178.32 103.705 178.468 103.981 178.528C104.257 178.588 104.542 178.558 104.802 178.44C105.062 178.322 105.284 178.123 105.44 177.867C105.596 177.611 105.679 177.311 105.679 177.003C105.679 176.591 105.53 176.195 105.263 175.903C104.997 175.611 104.635 175.447 104.258 175.447V175.448Z" fill="white"/>
<path d="M101.28 184.235L111.218 179.927C111.392 179.851 111.586 179.853 111.759 179.932C111.931 180.01 112.069 180.16 112.143 180.348L112.865 182.192C112.903 182.289 112.923 182.393 112.923 182.499C112.923 182.604 112.904 182.708 112.867 182.806C112.83 182.903 112.775 182.991 112.706 183.064C112.637 183.138 112.555 183.195 112.465 183.234L102.493 187.477C102.319 187.551 102.125 187.548 101.953 187.468C101.781 187.389 101.644 187.239 101.571 187.051L100.883 185.273C100.846 185.176 100.827 185.072 100.826 184.968C100.826 184.863 100.845 184.759 100.882 184.662C100.919 184.566 100.973 184.478 101.042 184.405C101.11 184.331 101.191 184.274 101.28 184.235Z" fill="white"/>
<path d="M107.631 168.752C107.56 168.752 107.493 168.722 107.443 168.667C107.393 168.613 107.365 168.539 107.365 168.461V162.844C107.365 162.767 107.393 162.693 107.443 162.638C107.493 162.584 107.56 162.553 107.631 162.553C107.701 162.553 107.769 162.584 107.819 162.638C107.869 162.693 107.897 162.767 107.897 162.844V168.461C107.897 168.539 107.869 168.613 107.819 168.667C107.769 168.722 107.701 168.752 107.631 168.752Z" fill="white"/>
<path d="M110.198 165.944H105.063C104.993 165.944 104.925 165.913 104.875 165.859C104.825 165.804 104.797 165.73 104.797 165.653C104.797 165.575 104.825 165.501 104.875 165.447C104.925 165.392 104.993 165.362 105.063 165.362H110.197C110.268 165.362 110.336 165.392 110.386 165.447C110.435 165.501 110.464 165.575 110.464 165.653C110.464 165.73 110.435 165.804 110.386 165.859C110.336 165.913 110.268 165.944 110.197 165.944H110.198Z" fill="white"/>
<path d="M75.6556 217.879C75.3054 217.879 74.9612 217.779 74.6578 217.588C74.1963 217.297 73.8593 216.818 73.7207 216.255C73.5822 215.693 73.6536 215.093 73.9192 214.588L79.3072 204.347C79.3423 204.28 79.4003 204.232 79.4683 204.211C79.5364 204.191 79.609 204.201 79.6702 204.24L82.689 206.141C82.7495 206.179 82.794 206.242 82.813 206.315C82.8312 206.39 82.8217 206.469 82.7864 206.536L77.3995 216.776C77.2233 217.112 76.9693 217.39 76.6631 217.584C76.3569 217.778 76.0093 217.879 75.6556 217.879ZM74.9234 217.082C75.2626 217.295 75.6651 217.352 76.0427 217.24C76.4203 217.129 76.7421 216.858 76.9376 216.488L82.192 206.5L79.635 204.89L74.3806 214.877C74.1854 215.249 74.133 215.689 74.2348 216.103C74.3366 216.516 74.5843 216.869 74.9234 217.082V217.082Z" fill="white"/>
<path d="M84.304 204.682L80.012 201.98C79.3706 201.576 78.5514 201.817 78.1822 202.519L78.182 202.519C77.8128 203.221 78.0335 204.117 78.6749 204.521L82.9669 207.224C83.6083 207.628 84.4275 207.387 84.7967 206.685L84.7969 206.684C85.1661 205.983 84.9454 205.086 84.304 204.682Z" fill="white"/>
<path d="M83.9259 199.971C84.2652 200.185 84.5131 200.537 84.6149 200.951C84.7168 201.364 84.6642 201.805 84.469 202.176L82.77 205.406L80.2108 203.794L81.9097 200.565C82.0064 200.381 82.1353 200.22 82.289 200.09C82.4427 199.961 82.6181 199.866 82.8054 199.811C82.9926 199.756 83.1879 199.742 83.3802 199.769C83.5725 199.796 83.7579 199.865 83.9259 199.971Z" fill="white"/>
<path d="M104.899 216.784C103.89 216.787 102.89 216.571 101.958 216.15C101.025 215.728 100.177 215.109 99.4645 214.327C99.4159 214.272 99.389 214.199 99.3895 214.122C99.39 214.046 99.4179 213.973 99.4672 213.919C99.5164 213.865 99.5831 213.834 99.6529 213.833C99.7227 213.833 99.7899 213.862 99.8402 213.915C100.845 215.01 102.124 215.754 103.515 216.054C104.906 216.354 106.348 216.196 107.657 215.6C108.966 215.003 110.084 213.996 110.87 212.704C111.655 211.412 112.073 209.895 112.07 208.343C112.068 206.792 111.645 205.276 110.854 203.988C110.064 202.699 108.943 201.696 107.632 201.105C106.32 200.514 104.879 200.362 103.488 200.667C102.098 200.973 100.822 201.723 99.821 202.822C99.7709 202.875 99.7037 202.905 99.634 202.904C99.5642 202.904 99.4974 202.873 99.448 202.819C99.3986 202.765 99.3705 202.692 99.3698 202.616C99.3691 202.54 99.3959 202.466 99.4443 202.411C100.338 201.43 101.439 200.704 102.651 200.3C103.862 199.895 105.146 199.823 106.388 200.091C107.631 200.359 108.794 200.958 109.774 201.835C110.755 202.712 111.523 203.84 112.01 205.119C112.496 206.398 112.687 207.789 112.566 209.168C112.444 210.547 112.013 211.872 111.312 213.026C110.61 214.18 109.659 215.126 108.543 215.781C107.428 216.437 106.181 216.781 104.915 216.784H104.899Z" fill="white"/>
<path d="M102.551 203.652C102.536 203.652 102.52 203.65 102.504 203.647L99.2979 203.018C99.263 203.011 99.2297 202.997 99.2001 202.975C99.1704 202.954 99.1449 202.927 99.125 202.894C99.1052 202.862 99.0914 202.826 99.0846 202.788C99.0777 202.75 99.0779 202.711 99.085 202.673L99.7039 199.375C99.7109 199.338 99.7246 199.302 99.7441 199.27C99.7637 199.239 99.7888 199.211 99.8179 199.19C99.8471 199.169 99.8797 199.155 99.914 199.147C99.9484 199.14 99.9836 199.14 100.018 199.148C100.052 199.156 100.085 199.171 100.114 199.192C100.143 199.213 100.167 199.241 100.187 199.273C100.206 199.305 100.219 199.34 100.226 199.378C100.233 199.415 100.232 199.454 100.225 199.491L99.6613 202.497L102.599 203.074C102.664 203.087 102.723 203.126 102.763 203.184C102.803 203.242 102.822 203.314 102.816 203.386C102.811 203.458 102.78 203.526 102.731 203.575C102.682 203.624 102.618 203.651 102.552 203.651L102.551 203.652Z" fill="white"/>
<path d="M109.796 245.715H96.9842C96.9136 245.715 96.8459 245.684 96.796 245.63C96.7461 245.575 96.7181 245.501 96.7181 245.424V231.407C96.7181 231.33 96.7461 231.256 96.796 231.201C96.8459 231.147 96.9136 231.116 96.9842 231.116H109.796C109.866 231.116 109.934 231.147 109.984 231.201C110.034 231.256 110.062 231.33 110.062 231.407V245.424C110.062 245.501 110.034 245.575 109.984 245.63C109.934 245.684 109.866 245.715 109.796 245.715ZM97.2502 245.133H109.53V231.698H97.2502V245.133Z" fill="white"/>
<path d="M110.662 236.449H103.762C102.155 236.449 100.852 237.875 100.852 239.633V247.182C100.852 248.941 102.155 250.367 103.762 250.367H110.662C112.269 250.367 113.572 248.941 113.572 247.182V239.633C113.572 237.875 112.269 236.449 110.662 236.449Z" fill="#292A2E"/>
<path d="M110.663 250.657H103.762C102.92 250.656 102.113 250.29 101.517 249.639C100.922 248.987 100.587 248.104 100.586 247.183V239.633C100.587 238.712 100.922 237.829 101.517 237.177C102.113 236.526 102.92 236.159 103.762 236.158H110.663C111.505 236.159 112.312 236.526 112.907 237.177C113.503 237.829 113.838 238.712 113.838 239.633V247.183C113.838 248.104 113.503 248.987 112.907 249.639C112.312 250.29 111.505 250.656 110.663 250.657ZM103.762 236.742C103.061 236.743 102.389 237.048 101.893 237.59C101.397 238.133 101.119 238.868 101.118 239.635V247.184C101.119 247.951 101.398 248.687 101.893 249.229C102.389 249.771 103.061 250.076 103.762 250.077H110.663C111.363 250.076 112.036 249.771 112.531 249.229C113.027 248.687 113.306 247.951 113.306 247.184V239.633C113.306 238.866 113.027 238.131 112.531 237.589C112.036 237.046 111.364 236.741 110.663 236.74L103.762 236.742Z" fill="white"/>
<path d="M83.7996 239.061C83.7996 235.759 81.353 233.082 78.335 233.082C75.317 233.082 72.8704 235.759 72.8704 239.061C72.8704 242.363 75.317 245.04 78.335 245.04C81.353 245.04 83.7996 242.363 83.7996 239.061Z" fill="#292A2E"/>
<path d="M78.335 245.331C77.2015 245.331 76.0936 244.963 75.1511 244.274C74.2087 243.585 73.4742 242.606 73.0405 241.46C72.6067 240.315 72.4932 239.054 72.7144 237.838C72.9355 236.622 73.4813 235.504 74.2827 234.627C75.0842 233.751 76.1053 233.153 77.217 232.911C78.3286 232.67 79.4809 232.794 80.528 233.268C81.5752 233.743 82.4702 234.546 83.0999 235.578C83.7296 236.609 84.0657 237.821 84.0657 239.061C84.0638 240.723 83.4595 242.317 82.3852 243.492C81.3109 244.668 79.8543 245.329 78.335 245.331ZM78.335 233.373C77.3068 233.373 76.3017 233.707 75.4468 234.332C74.5919 234.957 73.9256 235.845 73.5321 236.884C73.1386 237.924 73.0357 239.067 73.2363 240.171C73.4369 241.274 73.932 242.287 74.659 243.083C75.3861 243.878 76.3124 244.42 77.3208 244.639C78.3292 244.859 79.3745 244.746 80.3244 244.316C81.2743 243.885 82.0862 243.156 82.6574 242.221C83.2286 241.286 83.5335 240.186 83.5335 239.061C83.532 237.553 82.9838 236.107 82.0092 235.041C81.0346 233.975 79.7132 233.375 78.335 233.373Z" fill="white"/>
<path d="M81.1855 244.16L80.7267 244.455L84.3804 251.258L84.8392 250.963L81.1855 244.16Z" fill="white"/>
<path d="M113.123 283.898H98.8456V268.279H113.123V283.898ZM99.3777 283.316H112.59V268.861H99.3777V283.316Z" fill="white"/>
<path d="M99.1117 268.861C99.0411 268.861 98.9734 268.83 98.9235 268.776C98.8736 268.721 98.8456 268.647 98.8456 268.57V264.013C98.8456 263.936 98.8736 263.862 98.9235 263.807C98.9734 263.753 99.0411 263.722 99.1117 263.722C99.1822 263.722 99.2499 263.753 99.2998 263.807C99.3497 263.862 99.3777 263.936 99.3777 264.013V268.57C99.3777 268.647 99.3497 268.721 99.2998 268.776C99.2499 268.83 99.1822 268.861 99.1117 268.861Z" fill="white"/>
<path d="M99.0664 268.861H94.9018C94.8312 268.861 94.7636 268.83 94.7137 268.776C94.6638 268.721 94.6357 268.647 94.6357 268.57C94.6357 268.493 94.6638 268.419 94.7137 268.364C94.7636 268.309 94.8312 268.279 94.9018 268.279H99.0664C99.137 268.279 99.2047 268.309 99.2546 268.364C99.3045 268.419 99.3325 268.493 99.3325 268.57C99.3325 268.647 99.3045 268.721 99.2546 268.776C99.2047 268.83 99.137 268.861 99.0664 268.861Z" fill="white"/>
<path d="M77.9604 284.935H79.0853L82.6731 266.488H87.9142L88.0888 265.528H76.4975L76.3059 266.488H81.521L77.9604 284.935Z" fill="white"/>
<path d="M328.74 361.056L306.754 287.113C306.368 285.814 305.616 284.682 304.605 283.879C303.595 283.076 302.378 282.643 301.129 282.644H211.557C210.623 282.644 209.703 282.885 208.871 283.349C208.039 283.813 207.319 284.486 206.771 285.312C206.222 286.139 205.86 287.096 205.714 288.105C205.568 289.114 205.643 290.146 205.932 291.118L227.918 365.06C228.304 366.359 229.056 367.492 230.067 368.295C231.077 369.098 232.294 369.53 233.543 369.53H323.115C324.049 369.53 324.969 369.288 325.801 368.824C326.633 368.36 327.353 367.687 327.901 366.861C328.45 366.034 328.812 365.077 328.958 364.068C329.104 363.059 329.029 362.027 328.74 361.056Z" fill="#292A2E"/>
<path d="M370.765 363.534H310.806C309.312 363.534 308.1 364.859 308.1 366.494V366.57C308.1 368.205 309.312 369.53 310.806 369.53H370.765C372.259 369.53 373.47 368.205 373.47 366.57V366.494C373.47 364.859 372.259 363.534 370.765 363.534Z" fill="#292A2E"/>
<path d="M267.336 339.972C272.524 339.972 276.73 335.37 276.73 329.694C276.73 324.017 272.524 319.415 267.336 319.415C262.147 319.415 257.941 324.017 257.941 329.694C257.941 335.37 262.147 339.972 267.336 339.972Z" fill="white"/>
<path fill-rule="evenodd" clip-rule="evenodd" d="M154.342 192.532C166.377 191.105 174.508 179.91 172.676 167.662C172.472 166.301 172.154 164.981 171.732 163.713C171.153 164.019 170.53 164.257 169.87 164.416C170.234 165.535 170.51 166.698 170.69 167.897C172.369 179.121 164.917 189.265 154.046 190.554C143.175 191.843 133.001 183.788 131.322 172.564C129.643 161.34 137.095 151.196 147.966 149.907C152.169 149.409 156.268 150.307 159.812 152.246C160.068 151.632 160.395 151.056 160.782 150.528C156.874 148.378 152.339 147.376 147.67 147.929C135.635 149.356 127.504 160.551 129.336 172.8C131.169 185.048 142.307 193.958 154.342 192.532ZM161.057 169.039C161.915 174.77 158.11 179.95 152.558 180.608C147.007 181.266 141.812 177.154 140.955 171.422C140.097 165.691 143.902 160.511 149.453 159.853C155.004 159.195 160.2 163.307 161.057 169.039ZM168.592 162.425C172.062 162.013 174.44 158.776 173.904 155.194C173.368 151.612 170.121 149.041 166.652 149.452C163.182 149.864 160.804 153.101 161.34 156.683C161.876 160.266 165.123 162.836 168.592 162.425Z" fill="#367CFF"/>
<path fill-rule="evenodd" clip-rule="evenodd" d="M233.039 155.698C250.854 153.586 262.946 136.999 260.221 118.783C259.927 116.814 259.471 114.904 258.869 113.066C258.265 113.32 257.634 113.529 256.98 113.687C257.537 115.401 257.96 117.182 258.235 119.018C260.807 136.21 249.394 151.746 232.744 153.72C216.093 155.694 200.511 143.358 197.939 126.166C195.367 108.975 206.78 93.4385 223.43 91.4645C229.868 90.7013 236.146 92.0773 241.574 95.046C241.83 94.435 242.131 93.848 242.473 93.2896C236.697 90.1362 230.01 88.6714 223.134 89.4866C205.32 91.5985 193.228 108.186 195.953 126.402C198.678 144.618 215.225 157.81 233.039 155.698ZM243.482 120.767C244.795 129.546 238.967 137.479 230.465 138.487C221.962 139.495 214.005 133.196 212.692 124.417C211.379 115.639 217.207 107.705 225.709 106.697C234.211 105.689 242.168 111.989 243.482 120.767ZM255.023 110.637C260.337 110.007 263.979 105.048 263.158 99.5619C262.337 94.0753 257.364 90.1382 252.05 90.7682C246.736 91.3981 243.094 96.3566 243.915 101.843C244.735 107.33 249.709 111.267 255.023 110.637Z" fill="#9BBCF9"/>
</svg>
